<svg width="49" height="53" viewBox="0 0 49 53" fill="none" xmlns="http://www.w3.org/2000/svg">
<g clip-path="url(#clip0_1_49)">
<path d="M33.6063 27.0499C35.5541 24.703 36.75 21.6124 36.75 18.2188C36.75 10.913 31.2543 4.96875 24.5 4.96875C17.7457 4.96875 12.25 10.913 12.25 18.2188C12.25 25.5245 17.7457 31.4688 24.5 31.4688C26.8811 31.4688 29.0983 30.7185 30.9818 29.4415C37.6427 32.1561 42.2288 38.7496 42.8122 46.375H6.18931C6.58591 41.2423 8.81234 36.4557 12.4338 33.0405C13.0723 32.4393 13.1381 31.3942 12.5823 30.7036C12.028 30.0146 11.0602 29.9417 10.4217 30.5429C5.74372 34.9518 3.0625 41.3251 3.0625 48.0312C3.0625 48.9472 3.7485 49.6875 4.59375 49.6875H44.4062C45.253 49.6875 45.9375 48.9472 45.9375 48.0312C45.9375 38.9451 41.0681 30.8311 33.6063 27.0499ZM15.3125 18.2188C15.3125 12.7382 19.4331 8.28125 24.5 8.28125C29.5669 8.28125 33.6875 12.7382 33.6875 18.2188C33.6875 23.6993 29.5669 28.1562 24.5 28.1562C19.4331 28.1562 15.3125 23.6993 15.3125 18.2188Z" fill="#143471"/>
</g>
<defs>
<clipPath id="clip0_1_49">
<rect width="49" height="53" fill="white"/>
</clipPath>
</defs>
</svg>
