<svg width="58" height="53" viewBox="0 0 58 53" fill="none" xmlns="http://www.w3.org/2000/svg">
<g clip-path="url(#clip0_1_39)">
<path d="M48.9375 36.4375H19.9375C19.5628 36.4361 19.1978 36.3287 18.8927 36.13C18.5876 35.9313 18.3574 35.651 18.2338 35.3278L7.77562 8.28125H1.8125C1.3318 8.28125 0.870779 8.10675 0.530869 7.79615C0.190959 7.48554 0 7.06426 0 6.625C0 6.18574 0.190959 5.76446 0.530869 5.45385C0.870779 5.14325 1.3318 4.96875 1.8125 4.96875H9.0625C9.43718 4.97011 9.80218 5.07755 10.1073 5.27627C10.4124 5.47499 10.6426 5.75524 10.7662 6.07844L21.2244 33.125H47.6325L54.4656 14.3763C54.5418 14.1696 54.6618 13.9787 54.8187 13.8145C54.9756 13.6502 55.1663 13.5158 55.3801 13.4189C55.5938 13.322 55.8264 13.2645 56.0644 13.2498C56.3025 13.235 56.5414 13.2632 56.7675 13.3328C56.9936 13.4024 57.2025 13.512 57.3823 13.6554C57.562 13.7988 57.7091 13.9731 57.8152 14.1684C57.9212 14.3638 57.9841 14.5762 58.0003 14.7938C58.0164 15.0113 57.9855 15.2296 57.9094 15.4362L50.6594 35.3112C50.5378 35.6402 50.3061 35.9259 49.9971 36.128C49.6882 36.3301 49.3175 36.4384 48.9375 36.4375Z" fill="#143471"/>
<path d="M50.75 16.5625H18.125C17.6443 16.5625 17.1833 16.388 16.8434 16.0774C16.5035 15.7668 16.3125 15.3455 16.3125 14.9062C16.3125 14.467 16.5035 14.0457 16.8434 13.7351C17.1833 13.4245 17.6443 13.25 18.125 13.25H50.75C51.2307 13.25 51.6917 13.4245 52.0316 13.7351C52.3715 14.0457 52.5625 14.467 52.5625 14.9062C52.5625 15.3455 52.3715 15.7668 52.0316 16.0774C51.6917 16.388 51.2307 16.5625 50.75 16.5625Z" fill="#143471"/>
<path d="M47.125 23.1875H21.75C21.2693 23.1875 20.8083 23.013 20.4684 22.7024C20.1285 22.3918 19.9375 21.9705 19.9375 21.5312C19.9375 21.092 20.1285 20.6707 20.4684 20.3601C20.8083 20.0495 21.2693 19.875 21.75 19.875H47.125C47.6057 19.875 48.0667 20.0495 48.4066 20.3601C48.7465 20.6707 48.9375 21.092 48.9375 21.5312C48.9375 21.9705 48.7465 22.3918 48.4066 22.7024C48.0667 23.013 47.6057 23.1875 47.125 23.1875Z" fill="#143471"/>
<path d="M45.3125 29.8125H23.5625C23.0818 29.8125 22.6208 29.638 22.2809 29.3274C21.941 29.0168 21.75 28.5955 21.75 28.1562C21.75 27.717 21.941 27.2957 22.2809 26.9851C22.6208 26.6745 23.0818 26.5 23.5625 26.5H45.3125C45.7932 26.5 46.2542 26.6745 46.5941 26.9851C46.934 27.2957 47.125 27.717 47.125 28.1562C47.125 28.5955 46.934 29.0168 46.5941 29.3274C46.2542 29.638 45.7932 29.8125 45.3125 29.8125Z" fill="#143471"/>
<path d="M45.3125 48.0312C44.2371 48.0312 43.1858 47.7398 42.2916 47.1939C41.3974 46.6479 40.7005 45.8719 40.2889 44.964C39.8774 44.056 39.7697 43.057 39.9795 42.0931C40.1893 41.1293 40.7072 40.244 41.4676 39.5491C42.2281 38.8542 43.1969 38.3809 44.2517 38.1892C45.3065 37.9975 46.3998 38.0959 47.3933 38.472C48.3869 38.848 49.2361 39.4849 49.8336 40.302C50.4311 41.1191 50.75 42.0798 50.75 43.0625C50.75 44.3803 50.1771 45.6441 49.1574 46.5759C48.1377 47.5078 46.7546 48.0312 45.3125 48.0312ZM45.3125 41.4062C44.954 41.4062 44.6036 41.5034 44.3055 41.6854C44.0075 41.8674 43.7752 42.126 43.638 42.4287C43.5008 42.7313 43.4649 43.0643 43.5348 43.3856C43.6048 43.7069 43.7774 44.002 44.0309 44.2336C44.2844 44.4653 44.6073 44.623 44.9589 44.6869C45.3105 44.7508 45.6749 44.718 46.0061 44.5927C46.3373 44.4673 46.6204 44.255 46.8195 43.9827C47.0187 43.7103 47.125 43.3901 47.125 43.0625C47.125 42.6232 46.934 42.202 46.5941 41.8914C46.2542 41.5807 45.7932 41.4062 45.3125 41.4062Z" fill="#143471"/>
<path d="M23.5625 48.0312C22.4871 48.0312 21.4358 47.7398 20.5416 47.1939C19.6474 46.6479 18.9505 45.8719 18.5389 44.964C18.1274 44.056 18.0197 43.057 18.2295 42.0931C18.4393 41.1293 18.9572 40.244 19.7176 39.5491C20.4781 38.8542 21.4469 38.3809 22.5017 38.1892C23.5565 37.9975 24.6498 38.0959 25.6433 38.472C26.6369 38.848 27.4861 39.4849 28.0836 40.302C28.6811 41.1191 29 42.0798 29 43.0625C29 44.3803 28.4271 45.6441 27.4074 46.5759C26.3877 47.5078 25.0046 48.0312 23.5625 48.0312ZM23.5625 41.4062C23.204 41.4062 22.8536 41.5034 22.5555 41.6854C22.2575 41.8674 22.0252 42.126 21.888 42.4287C21.7508 42.7313 21.7149 43.0643 21.7848 43.3856C21.8548 43.7069 22.0274 44.002 22.2809 44.2336C22.5344 44.4653 22.8573 44.623 23.2089 44.6869C23.5605 44.7508 23.9249 44.718 24.2561 44.5927C24.5873 44.4673 24.8704 44.255 25.0695 43.9827C25.2687 43.7103 25.375 43.3901 25.375 43.0625C25.375 42.6232 25.184 42.202 24.8441 41.8914C24.5042 41.5807 24.0432 41.4062 23.5625 41.4062Z" fill="#143471"/>
</g>
<defs>
<clipPath id="clip0_1_39">
<rect width="58" height="53" fill="white"/>
</clipPath>
</defs>
</svg>
