<svg width="297" height="114" viewBox="0 0 297 114" fill="none" xmlns="http://www.w3.org/2000/svg">
<g clip-path="url(#clip0_1_6)">
<path d="M72.9725 28.5797L64.4191 19.6875H66.2812C67.9554 19.6875 69.561 18.9961 70.7449 17.7654C71.9287 16.5347 72.5938 14.8655 72.5938 13.125V6.5625C72.5938 4.82202 71.9287 3.15282 70.7449 1.92211C69.561 0.691404 67.9554 0 66.2812 0L15.7812 0C14.1071 0 12.5015 0.691404 11.3176 1.92211C10.1338 3.15282 9.46875 4.82202 9.46875 6.5625V13.125C9.46875 14.8655 10.1338 16.5347 11.3176 17.7654C12.5015 18.9961 14.1071 19.6875 15.7812 19.6875H17.6434L9.09 28.5797C7.31376 30.424 6.31471 32.9261 6.3125 35.5359V95.1562C6.3125 97.767 7.3101 100.271 9.08583 102.117C10.8616 103.963 13.27 105 15.7812 105H59.9688C60.8058 105 61.6086 104.654 62.2006 104.039C62.7925 103.424 63.125 102.589 63.125 101.719C63.125 100.849 62.7925 100.014 62.2006 99.3986C61.6086 98.7832 60.8058 98.4375 59.9688 98.4375H15.7812C14.9442 98.4375 14.1414 98.0918 13.5494 97.4764C12.9575 96.8611 12.625 96.0265 12.625 95.1562V88.5938H53.6562C54.4933 88.5938 55.2961 88.248 55.8881 87.6327C56.48 87.0173 56.8125 86.1827 56.8125 85.3125C56.8125 84.4423 56.48 83.6077 55.8881 82.9923C55.2961 82.377 54.4933 82.0312 53.6562 82.0312H12.625V42.6562H72.5938C73.4308 42.6562 74.2337 42.3105 74.8256 41.6952C75.4175 41.0798 75.75 40.2452 75.75 39.375V35.5359C75.7478 32.9261 74.7487 30.424 72.9725 28.5797ZM15.7812 6.5625H66.2812V13.125H15.7812V6.5625ZM69.4375 36.0938H12.625V35.5359C12.6226 35.1041 12.7022 34.676 12.8593 34.2762C13.0164 33.8765 13.2478 33.5129 13.5403 33.2062L26.5441 19.6875H55.5184L68.5222 33.2062C68.8147 33.5129 69.0461 33.8765 69.2032 34.2762C69.3603 34.676 69.4399 35.1041 69.4375 35.5359V36.0938Z" fill="#143471"/>
<path d="M50.5 59.0625H44.1875V52.5C44.1875 51.6298 43.855 50.7952 43.2631 50.1798C42.6711 49.5645 41.8683 49.2188 41.0312 49.2188C40.1942 49.2188 39.3914 49.5645 38.7994 50.1798C38.2075 50.7952 37.875 51.6298 37.875 52.5V59.0625H31.5625C30.7254 59.0625 29.9226 59.4082 29.3307 60.0236C28.7388 60.6389 28.4062 61.4735 28.4062 62.3438C28.4062 63.214 28.7388 64.0486 29.3307 64.6639C29.9226 65.2793 30.7254 65.625 31.5625 65.625H37.875V72.1875C37.875 73.0577 38.2075 73.8923 38.7994 74.5077C39.3914 75.1231 40.1942 75.4688 41.0312 75.4688C41.8683 75.4688 42.6711 75.1231 43.2631 74.5077C43.855 73.8923 44.1875 73.0577 44.1875 72.1875V65.625H50.5C51.3371 65.625 52.1399 65.2793 52.7318 64.6639C53.3237 64.0486 53.6562 63.214 53.6562 62.3438C53.6562 61.4735 53.3237 60.6389 52.7318 60.0236C52.1399 59.4082 51.3371 59.0625 50.5 59.0625Z" fill="#1D6FD0"/>
<path d="M91.5312 82.0312H66.2812C65.4442 82.0312 64.6414 81.6856 64.0494 81.0702C63.4575 80.4548 63.125 79.6202 63.125 78.75C63.125 77.8798 63.4575 77.0452 64.0494 76.4298C64.6414 75.8144 65.4442 75.4688 66.2812 75.4688H91.5312C92.3683 75.4688 93.1711 75.8144 93.7631 76.4298C94.355 77.0452 94.6875 77.8798 94.6875 78.75C94.6875 79.6202 94.355 80.4548 93.7631 81.0702C93.1711 81.6856 92.3683 82.0312 91.5312 82.0312Z" fill="#1D6FD0"/>
<path d="M78.9062 105C74.7208 105 70.7068 103.271 67.7472 100.195C64.7877 97.118 63.125 92.945 63.125 88.5938V65.625C63.125 61.2738 64.7877 57.1008 67.7472 54.024C70.7068 50.9473 74.7208 49.2188 78.9062 49.2188C83.0917 49.2188 87.1057 50.9473 90.0653 54.024C93.0248 57.1008 94.6875 61.2738 94.6875 65.625V88.5938C94.6875 92.945 93.0248 97.118 90.0653 100.195C87.1057 103.271 83.0917 105 78.9062 105ZM78.9062 55.7812C76.395 55.7812 73.9866 56.8184 72.2108 58.6644C70.4351 60.5105 69.4375 63.0143 69.4375 65.625V88.5938C69.4375 91.2045 70.4351 93.7083 72.2108 95.5543C73.9866 97.4004 76.395 98.4375 78.9062 98.4375C81.4175 98.4375 83.8259 97.4004 85.6017 95.5543C87.3774 93.7083 88.375 91.2045 88.375 88.5938V65.625C88.375 63.0143 87.3774 60.5105 85.6017 58.6644C83.8259 56.8184 81.4175 55.7812 78.9062 55.7812Z" fill="#143471"/>
</g>
<g filter="url(#filter0_d_1_6)">
<path d="M130.136 62.904C129.912 62.904 129.768 62.76 129.704 62.472C129.704 61.928 130.088 61.304 130.856 60.6C131.624 59.896 132.232 59.448 132.68 59.256C133.16 59.064 134.712 58.936 137.336 58.872L138.008 58.104C147.736 46.872 154.488 41.256 158.264 41.256C158.584 41.224 158.952 41.208 159.368 41.208C161.576 41.208 162.68 41.736 162.68 42.792C162.68 42.984 162.472 43.496 162.056 44.328L159.896 48.648C158.872 50.696 157.88 52.776 156.92 54.888C151.736 66.312 148.728 73.8 147.896 77.352C147.896 77.608 147.56 77.736 146.888 77.736C146.248 77.736 145.464 77.368 144.536 76.632C143.608 75.928 143.144 75.304 143.144 74.76C143.144 73.768 143.928 71.896 145.496 69.144C147.064 66.392 147.848 64.6 147.848 63.768C147.848 62.648 145.672 62.088 141.32 62.088C140.68 62.088 139.688 62.12 138.344 62.184L136.52 64.584C134.28 67.592 132.136 71.32 130.088 75.768C129.736 76.568 128.664 76.968 126.872 76.968C125.08 76.968 124.184 76.712 124.184 76.2C124.184 75.848 125.176 74.312 127.16 71.592C129.176 68.84 131.56 65.8 134.312 62.472C133.832 62.536 133.224 62.6 132.488 62.664C131.752 62.728 131.176 62.792 130.76 62.856C130.376 62.888 130.168 62.904 130.136 62.904ZM150.056 56.712C151.304 55.208 152.232 53.688 152.84 52.152C153.48 50.616 153.8 49.576 153.8 49.032C153.8 48.488 153.528 48.216 152.984 48.216C152.024 48.216 150.44 49.24 148.232 51.288C146.024 53.304 143.624 55.832 141.032 58.872L146.264 58.968C147.544 58.968 148.808 58.216 150.056 56.712ZM157.597 76.776C156.157 76.776 155.325 76.92 155.101 77.208C154.013 78.616 151.773 82.584 148.381 89.112C144.957 95.64 142.781 100.232 141.853 102.888C141.725 103.272 141.421 103.464 140.941 103.464C140.461 103.464 139.901 103.112 139.261 102.408C138.621 101.704 138.301 100.952 138.301 100.152C138.301 99.032 139.901 95.624 143.101 89.928C146.301 84.264 150.093 77.72 154.477 70.296C158.893 62.872 161.469 58.456 162.205 57.048C162.973 55.608 163.373 54.856 163.405 54.792C163.437 54.696 163.549 54.536 163.741 54.312C163.933 54.056 164.157 53.848 164.413 53.688C165.149 53.208 166.125 52.968 167.341 52.968C168.013 52.968 168.349 53.176 168.349 53.592C168.349 53.784 167.901 54.552 167.005 55.896C166.141 57.24 165.709 58.072 165.709 58.392C165.709 58.712 165.821 58.872 166.045 58.872C166.269 58.872 166.685 58.68 167.293 58.296C169.181 57.112 170.925 56.52 172.525 56.52C173.165 56.52 173.741 56.776 174.253 57.288C174.765 57.8 175.021 58.648 175.021 59.832C175.021 62.424 174.253 65.032 172.717 67.656C171.181 70.248 169.037 72.424 166.285 74.184C163.565 75.912 160.669 76.776 157.597 76.776ZM169.981 62.328C169.981 61.88 169.885 61.528 169.693 61.272C169.501 60.984 169.261 60.84 168.973 60.84C167.821 60.84 166.557 61.384 165.181 62.472C163.805 63.56 162.605 64.792 161.581 66.168C160.589 67.544 159.741 68.808 159.037 69.96C158.365 71.112 158.029 71.848 158.029 72.168C158.029 72.488 158.253 72.808 158.701 73.128C159.181 73.448 159.741 73.608 160.381 73.608C162.397 73.608 164.493 72.232 166.669 69.48C168.877 66.728 169.981 64.344 169.981 62.328ZM198.551 44.328L200.903 44.232C201.223 44.232 201.383 44.296 201.383 44.424C201.383 44.552 201.351 44.712 201.287 44.904C201.223 45.096 201.079 45.336 200.855 45.624C200.663 45.912 200.423 46.168 200.135 46.392C199.367 47 198.407 47.304 197.255 47.304C196.135 47.304 195.303 47.336 194.759 47.4C194.247 47.464 193.799 47.624 193.415 47.88C193.031 48.136 192.775 48.328 192.647 48.456C192.519 48.584 192.295 48.904 191.975 49.416C191.655 49.928 191.431 50.28 191.303 50.472C189.607 52.84 186.855 57.304 183.047 63.864C179.271 70.424 176.919 75.496 175.991 79.08C175.895 79.4 175.591 79.56 175.079 79.56C174.599 79.56 173.927 79.144 173.063 78.312C172.199 77.48 171.767 76.632 171.767 75.768C171.767 74.904 173.063 72.328 175.655 68.04C178.279 63.752 180.903 59.544 183.527 55.416C186.151 51.256 187.463 48.952 187.463 48.504C187.463 48.024 187.271 47.736 186.887 47.64C186.503 47.512 185.831 47.448 184.871 47.448H183.287C182.871 47.448 182.663 47.256 182.663 46.872C182.663 46.488 182.839 46.088 183.191 45.672C183.575 45.224 184.135 44.84 184.871 44.52C185.639 44.2 186.407 43.88 187.175 43.56C187.975 43.24 188.999 42.52 190.247 41.4C191.527 40.28 192.807 38.84 194.087 37.08C194.887 35.992 196.263 35.448 198.215 35.448C198.887 35.448 199.223 35.656 199.223 36.072C199.223 36.328 198.503 37.496 197.063 39.576C195.623 41.656 194.903 42.968 194.903 43.512C194.903 44.024 195.383 44.28 196.343 44.28C196.727 44.312 197.463 44.328 198.551 44.328ZM189.285 77.736C187.429 77.736 186.069 77.176 185.205 76.056C184.341 74.968 183.909 73.624 183.909 72.024C183.909 70.392 184.261 68.696 184.965 66.936C185.669 65.144 186.629 63.416 187.845 61.752C189.093 60.088 190.709 58.696 192.693 57.576C194.709 56.424 196.869 55.848 199.173 55.848C200.229 55.848 201.029 56.184 201.573 56.856C202.117 57.496 202.389 58.264 202.389 59.16C202.389 61.016 201.733 62.744 200.421 64.344C199.109 65.944 197.653 67.16 196.053 67.992C194.453 68.824 193.029 69.304 191.781 69.432C190.565 69.528 189.749 69.752 189.333 70.104C188.917 70.456 188.709 71.16 188.709 72.216C188.709 73.272 188.949 74.072 189.429 74.616C189.909 75.16 190.389 75.528 190.869 75.72C191.349 75.912 191.589 76.104 191.589 76.296C191.589 76.744 191.349 77.096 190.869 77.352C190.389 77.608 189.861 77.736 189.285 77.736ZM197.733 60.36C197.733 59.368 197.285 58.872 196.389 58.872C195.109 58.872 193.685 59.768 192.117 61.56C190.581 63.352 189.813 64.968 189.813 66.408C189.813 66.76 190.085 66.936 190.629 66.936C191.941 66.936 193.445 66.264 195.141 64.92C196.869 63.576 197.733 62.056 197.733 60.36ZM217.591 80.856C217.591 81.048 217.431 81.176 217.111 81.24C215.639 81.24 214.327 79.688 213.174 76.584C212.023 73.48 211.447 70.776 211.447 68.472C211.447 68.12 211.623 67.896 211.975 67.8C213.287 67.352 214.807 66.504 216.535 65.256C218.295 64.008 219.175 62.696 219.175 61.32C219.175 60.872 218.951 60.648 218.503 60.648C216.519 60.648 213.751 62.392 210.199 65.88C206.679 69.336 204.183 72.44 202.711 75.192C202.583 75.48 202.327 75.624 201.943 75.624C201.591 75.624 201.175 75.304 200.695 74.664C200.247 74.024 200.023 73.368 200.023 72.696C200.023 72.024 200.135 71.448 200.359 70.968C203.591 64.44 206.631 58.808 209.479 54.072C212.359 49.336 214.839 45.576 216.919 42.792C218.999 39.976 221.175 37.592 223.447 35.64C225.719 33.656 227.719 32.664 229.447 32.664C230.951 32.664 231.703 33.56 231.703 35.352C231.703 37.72 230.855 40.312 229.159 43.128C227.463 45.912 225.591 48.248 223.543 50.136C220.631 52.856 218.375 54.216 216.775 54.216C216.167 54.216 215.863 54.056 215.863 53.736L216.151 53.304C219.287 51.128 221.767 48.616 223.591 45.768C225.447 42.92 226.375 40.92 226.375 39.768C226.375 39.096 226.103 38.76 225.559 38.76C224.407 38.76 222.567 40.472 220.039 43.896C217.543 47.32 215.303 50.872 213.319 54.552C211.367 58.232 210.391 60.504 210.391 61.368C210.391 61.784 210.583 61.992 210.967 61.992C211.255 61.992 211.591 61.816 211.975 61.464C212.391 61.112 212.967 60.664 213.703 60.12C214.439 59.544 215.783 58.792 217.735 57.864C219.687 56.936 221.431 56.472 222.967 56.472C224.535 56.472 225.319 57.208 225.319 58.68C225.319 59.896 224.855 61.064 223.927 62.184C222.999 63.304 221.975 64.2 220.855 64.872C219.735 65.544 218.695 66.232 217.735 66.936C216.775 67.608 216.279 68.168 216.247 68.616C216.183 69.512 216.151 70.328 216.151 71.064C216.151 71.8 216.199 72.696 216.295 73.752C216.391 74.776 216.503 75.688 216.631 76.488C216.887 77.736 217.159 79 217.447 80.28L217.591 80.856ZM232.062 73.32L232.159 72.312C232.159 72.056 232.063 71.928 231.871 71.928C231.583 71.928 230.991 72.344 230.095 73.176C229.231 74.008 228.127 74.84 226.783 75.672C225.471 76.536 224.143 76.968 222.799 76.968C221.487 76.968 220.831 75.992 220.831 74.04C220.831 71.608 221.887 68.808 223.999 65.64C225.087 64.04 226.335 62.568 227.743 61.224C229.183 59.848 230.927 58.728 232.975 57.864C235.023 56.968 237.167 56.52 239.407 56.52C240.591 56.52 241.599 56.84 242.431 57.48C243.263 58.088 243.679 58.856 243.679 59.784C243.679 60.68 243.407 61.128 242.863 61.128C242.575 61.128 242.191 60.952 241.711 60.6C240.815 59.992 239.407 59.688 237.487 59.688C234.959 59.688 232.559 60.84 230.287 63.144C228.047 65.416 226.927 67.672 226.927 69.912C226.927 70.2 227.007 70.472 227.167 70.728C227.359 70.984 227.615 71.112 227.935 71.112C228.895 71.112 230.127 70.456 231.631 69.144C233.135 67.8 234.607 65.88 236.047 63.384C236.143 63.096 236.495 62.824 237.103 62.568C237.711 62.312 238.431 62.184 239.263 62.184C240.447 62.28 241.039 62.536 241.039 62.952C241.039 62.984 240.911 63.192 240.655 63.576C240.431 63.928 240.015 64.584 239.407 65.544C238.799 66.504 237.935 68.088 236.815 70.296C235.727 72.472 235.087 74.2 234.895 75.48C234.863 75.864 234.703 76.056 234.415 76.056C232.847 76.056 232.062 75.144 232.062 73.32ZM263.185 71.688C261.777 72.968 259.937 74.024 257.665 74.856C255.393 75.656 253.185 76.056 251.041 76.056C248.897 76.056 247.361 75.944 246.433 75.72C245.537 75.528 245.009 75.432 244.849 75.432C244.529 75.432 244.209 75.528 243.889 75.72C242.865 76.648 241.633 77.112 240.193 77.112C238.753 77.112 238.033 76.856 238.033 76.344C238.033 75.992 239.137 73.896 241.345 70.056C243.585 66.216 246.049 61.944 248.737 57.24C251.457 52.536 253.201 49.304 253.969 47.544C254.769 45.784 255.169 44.264 255.169 42.984V42.6C255.169 41.736 257.649 41.304 262.609 41.304C267.153 41.304 270.065 41.544 271.345 42.024C273.009 42.664 274.049 43.512 274.465 44.568C274.721 45.208 274.849 45.976 274.849 46.872C274.849 48.312 274.321 49.672 273.265 50.952C271.313 53.256 268.785 54.776 265.681 55.512C264.497 55.8 263.793 56.04 263.569 56.232C263.345 56.424 263.233 56.632 263.233 56.856C263.233 57.048 263.457 57.304 263.905 57.624C264.385 57.912 264.897 58.232 265.441 58.584C266.017 58.936 266.529 59.512 266.977 60.312C267.457 61.112 267.697 62.136 267.697 63.384C267.697 64.6 267.297 65.96 266.497 67.464C265.729 68.968 264.625 70.376 263.185 71.688ZM259.009 69.048C259.937 67.928 260.657 66.792 261.169 65.64C261.713 64.488 261.985 63.528 261.985 62.76C261.985 61.96 261.857 61.288 261.601 60.744C261.377 60.168 261.105 59.736 260.785 59.448C260.465 59.16 260.081 58.936 259.633 58.776C258.961 58.52 258.289 58.392 257.617 58.392H257.137C256.721 58.392 256.513 58.248 256.513 57.96C256.513 57.288 256.753 56.584 257.233 55.848C257.745 55.08 258.321 54.696 258.961 54.696C261.553 54.696 263.873 53.832 265.921 52.104C267.969 50.376 268.993 48.536 268.993 46.584C268.993 44.888 267.873 44.04 265.633 44.04C263.777 44.04 262.481 44.488 261.745 45.384C259.729 47.88 256.817 52.536 253.009 59.352C249.201 66.136 247.297 70.12 247.297 71.304C247.297 71.784 247.553 72.2 248.065 72.552C248.609 72.904 249.569 73.08 250.945 73.08C252.353 73.08 253.809 72.696 255.313 71.928C256.849 71.128 258.081 70.168 259.009 69.048ZM256.626 105.096C255.282 105.096 254.61 103.976 254.61 101.736C254.61 99.496 255.266 97 256.578 94.248C257.89 91.528 259.474 89.016 261.33 86.712C263.154 84.44 265.106 82.504 267.187 80.904C269.267 79.304 271.011 78.504 272.419 78.504C272.899 78.504 273.139 78.616 273.139 78.84C273.139 79.064 272.947 79.272 272.562 79.464C271.347 80.104 269.795 81.464 267.907 83.544C266.05 85.656 264.37 88.056 262.866 90.744C261.33 93.464 260.562 95.752 260.562 97.608C260.562 98.408 260.85 98.808 261.426 98.808C262.546 98.808 264.242 97.24 266.514 94.104C270.195 89.08 273.955 82.68 277.795 74.904C278.947 72.6 279.523 71.224 279.523 70.776C279.523 70.328 279.395 70.104 279.139 70.104C278.819 70.104 278.499 70.264 278.179 70.584C274.595 73.656 271.811 75.192 269.827 75.192C268.387 75.192 267.667 74.424 267.667 72.888C267.667 71.32 268.515 68.92 270.211 65.688C271.939 62.424 273.683 59.912 275.443 58.152C275.827 57.768 276.355 57.464 277.027 57.24C277.699 56.984 278.387 56.856 279.091 56.856C279.827 56.856 280.195 57.016 280.195 57.336C280.195 57.464 279.683 58.2 278.659 59.544C275.555 63.672 274.003 66.616 274.003 68.376C274.003 69.144 274.339 69.528 275.011 69.528C276.195 69.528 278.019 68.376 280.483 66.072C282.979 63.768 285.155 61.064 287.011 57.96C287.587 56.808 288.867 56.232 290.851 56.232C291.811 56.232 292.291 56.424 292.291 56.808C292.291 56.904 292.243 57.032 292.147 57.192C289.043 62.312 286.211 67.256 283.651 72.024C281.091 76.76 279.027 80.408 277.459 82.968C275.923 85.56 274.195 88.248 272.275 91.032C270.387 93.816 268.563 96.2 266.803 98.184C265.074 100.2 263.314 101.848 261.522 103.128C259.698 104.44 258.066 105.096 256.626 105.096Z" fill="#143471"/>
</g>
<defs>
<filter id="filter0_d_1_6" x="120.184" y="32.664" width="176.106" height="80.432" filterUnits="userSpaceOnUse" color-interpolation-filters="sRGB">
<feFlood flood-opacity="0" result="BackgroundImageFix"/>
<feColorMatrix in="SourceAlpha" type="matrix" values="0 0 0 0 0 0 0 0 0 0 0 0 0 0 0 0 0 0 127 0" result="hardAlpha"/>
<feOffset dy="4"/>
<feGaussianBlur stdDeviation="2"/>
<feComposite in2="hardAlpha" operator="out"/>
<feColorMatrix type="matrix" values="0 0 0 0 0 0 0 0 0 0 0 0 0 0 0 0 0 0 0.25 0"/>
<feBlend mode="normal" in2="BackgroundImageFix" result="effect1_dropShadow_1_6"/>
<feBlend mode="normal" in="SourceGraphic" in2="effect1_dropShadow_1_6" result="shape"/>
</filter>
<clipPath id="clip0_1_6">
<rect width="101" height="105" fill="white"/>
</clipPath>
</defs>
</svg>
