<svg width="102" height="90" viewBox="0 0 102 90" fill="none" xmlns="http://www.w3.org/2000/svg">
<path d="M90.4233 61.8402L86.9365 75.415C86.4467 77.3341 84.569 78.6766 82.3697 78.6764C44.5462 78.6697 13.7848 51.0312 13.7877 17.0527C13.7878 15.0783 15.2825 13.3897 17.4191 12.9522L32.5313 9.82259C34.7322 9.36466 36.9809 10.3911 37.8953 12.2635L44.8684 26.8764C45.6835 28.5977 45.1334 30.6029 43.5217 31.7852L35.4495 37.6064C40.543 46.9291 48.9799 54.5095 59.36 59.0895L65.9691 51.8447C67.2717 50.393 69.5209 49.8909 71.4368 50.6366L87.7026 56.902C89.659 57.8268 90.9332 59.874 90.4233 61.8402Z" fill="#0F2652"/>
</svg>
