<svg width="57" height="51" viewBox="0 0 57 51" fill="none" xmlns="http://www.w3.org/2000/svg">
<g clip-path="url(#clip0_1_89)">
<path d="M28.1272 51C20.7011 51 13.5792 48.3134 8.32821 43.5312C3.07719 38.749 0.127197 32.263 0.127197 25.5C0.127197 18.737 3.07719 12.251 8.32821 7.46878C13.5792 2.6866 20.7011 0 28.1272 0C35.5533 0 42.6752 2.6866 47.9262 7.46878C53.1772 12.251 56.1272 18.737 56.1272 25.5C56.1272 32.263 53.1772 38.749 47.9262 43.5312C42.6752 48.3134 35.5533 51 28.1272 51ZM28.1272 45.9C34.068 45.9 39.7656 43.7507 43.9664 39.925C48.1672 36.0992 50.5272 30.9104 50.5272 25.5C50.5272 20.0896 48.1672 14.9008 43.9664 11.075C39.7656 7.24928 34.068 5.1 28.1272 5.1C22.1863 5.1 16.4888 7.24928 12.288 11.075C8.08719 14.9008 5.7272 20.0896 5.7272 25.5C5.7272 30.9104 8.08719 36.0992 12.288 39.925C16.4888 43.7507 22.1863 45.9 28.1272 45.9ZM25.3272 26.5455V10.2H30.9272V24.4545L41.9872 34.527L38.0392 38.1225L25.3272 26.5455Z" fill="#0F2652"/>
</g>
<defs>
<clipPath id="clip0_1_89">
<rect width="56" height="51" fill="white" transform="translate(0.127197)"/>
</clipPath>
</defs>
</svg>
