<svg width="56" height="37" viewBox="0 0 56 37" fill="none" xmlns="http://www.w3.org/2000/svg">
<path d="M55.3425 0.900618C55.3425 0.815964 55.3425 0.815964 55.3425 0.73131C55.3425 0.646657 55.256 0.646658 55.256 0.562004C55.256 0.562004 55.256 0.47735 55.1695 0.47735C55.1695 0.392697 55.083 0.392696 54.9966 0.392696L54.9101 0.308043C54.8236 0.308043 54.8236 0.308043 54.7372 0.308043C54.6507 0.308043 54.6507 0.223389 54.5642 0.223389H0.864726C0.778253 0.223389 0.778253 0.223389 0.691781 0.308043C0.605308 0.308043 0.605308 0.308043 0.518836 0.308043C0.432363 0.308043 0.432363 0.392696 0.34589 0.392696C0.259418 0.392696 0.259418 0.47735 0.172945 0.47735C0.172945 0.47735 0.172945 0.562004 0.0864726 0.562004C0.0864726 0.646658 0 0.646657 0 0.73131C0 0.815964 0 0.815964 0 0.900618V0.985272V35.3546C0 35.8625 0.34589 36.5398 0.864726 36.5398H54.4777C54.9966 36.5398 55.3425 35.7779 55.3425 35.3546V0.985272V0.900618ZM31.2166 21.5561L27.8442 24.8576L24.5582 21.5561C23.8664 20.7942 23.8664 19.6091 24.5582 18.8472C24.7312 18.6779 24.9041 18.5932 25.1635 18.5932C25.7688 18.5932 26.5471 19.0165 27.2389 19.6091C27.5848 19.9477 28.1036 19.9477 28.4495 19.6091C29.1413 18.9318 30.006 18.5932 30.5248 18.5932C30.7842 18.5932 30.9572 18.6779 31.1301 18.8472C31.9084 19.6091 31.9949 20.7942 31.2166 21.5561ZM32.4272 17.662C31.9084 17.1541 31.3031 16.9001 30.6113 16.9001C29.5736 16.9001 28.536 17.4081 27.9306 17.916C27.3253 17.4081 26.2877 16.9001 25.25 16.9001C24.5582 16.9001 23.8664 17.1541 23.4341 17.662C23.3476 17.7467 23.2611 17.916 23.0882 18.0006L3.28596 1.83181H52.143L32.5137 17.8313C32.5137 17.8313 32.4272 17.7467 32.4272 17.662ZM1.72945 34.8467V2.84765L22.3099 19.6937C22.137 20.7942 22.4829 21.8947 23.2611 22.7412L27.2389 26.7199C27.4118 26.8893 27.5848 26.9739 27.8442 26.9739C28.1036 26.9739 28.2765 26.8893 28.4495 26.7199L32.4272 22.7412C33.292 21.81 33.6378 20.5402 33.292 19.3551L53.613 2.84765V34.8467H1.72945Z" fill="#143471"/>
</svg>
