<svg width="43" height="56" viewBox="0 0 43 56" fill="none" xmlns="http://www.w3.org/2000/svg">
<path d="M21.1272 55.1875C20.3962 55.1809 19.6747 55.0163 19.0087 54.7042C18.3427 54.392 17.747 53.9393 17.2597 53.375C10.8722 46.125 0.127205 32.3319 0.127205 23.215C0.0476981 17.3612 2.21458 11.7141 6.15199 7.51371C10.0894 3.31334 15.4754 0.90317 21.1272 0.8125C26.779 0.90317 32.165 3.31334 36.1024 7.51371C40.0398 11.7141 42.2067 17.3612 42.1272 23.215C42.1272 32.2775 31.3822 46.0344 24.9947 53.3931C24.5058 53.9542 23.9094 54.4035 23.2435 54.7124C22.5776 55.0214 21.8569 55.1832 21.1272 55.1875ZM21.1272 4.4375C16.4051 4.5328 11.912 6.56249 8.63193 10.082C5.35185 13.6015 3.55222 18.324 3.6272 23.215C3.6272 28.9062 9.6997 39.2738 19.8672 50.9644C20.0305 51.1398 20.2262 51.2793 20.4427 51.3746C20.6591 51.4699 20.892 51.519 21.1272 51.519C21.3624 51.519 21.5953 51.4699 21.8117 51.3746C22.0282 51.2793 22.224 51.1398 22.3872 50.9644C32.5547 39.2738 38.6272 28.9062 38.6272 23.215C38.7022 18.324 36.9026 13.6015 33.6225 10.082C30.3424 6.56249 25.8493 4.5328 21.1272 4.4375Z" fill="#143471"/>
<path d="M21.1272 33.4375C19.0505 33.4375 17.0204 32.7997 15.2937 31.6047C13.567 30.4098 12.2212 28.7113 11.4265 26.7242C10.6317 24.737 10.4238 22.5504 10.829 20.4409C11.2341 18.3314 12.2341 16.3936 13.7026 14.8727C15.171 13.3518 17.042 12.3161 19.0788 11.8965C21.1156 11.4769 23.2268 11.6922 25.1454 12.5153C27.064 13.3384 28.7039 14.7323 29.8576 16.5207C31.0114 18.3091 31.6272 20.4116 31.6272 22.5625C31.6272 25.4467 30.521 28.2128 28.5518 30.2523C26.5827 32.2917 23.912 33.4375 21.1272 33.4375ZM21.1272 15.3125C19.7427 15.3125 18.3894 15.7377 17.2382 16.5344C16.0871 17.331 15.1899 18.4633 14.66 19.788C14.1302 21.1128 13.9916 22.5705 14.2617 23.9769C14.5318 25.3833 15.1985 26.6751 16.1775 27.689C17.1564 28.703 18.4037 29.3935 19.7616 29.6732C21.1194 29.9529 22.5269 29.8094 23.806 29.2606C25.0851 28.7119 26.1783 27.7826 26.9475 26.5904C27.7167 25.3981 28.1272 23.9964 28.1272 22.5625C28.1272 20.6397 27.3897 18.7956 26.0769 17.436C24.7642 16.0763 22.9837 15.3125 21.1272 15.3125Z" fill="#143471"/>
</svg>
