<svg width="45" height="51" viewBox="0 0 45 51" fill="none" xmlns="http://www.w3.org/2000/svg">
<path d="M44.5392 38.3489L42.5545 48.1333C42.2757 49.5165 41.2069 50.4842 39.9551 50.484C18.4274 50.4798 0.919428 30.5592 0.921415 6.06847C0.921531 4.64542 1.77228 3.42826 2.98833 3.11291L11.5897 0.856952C12.8424 0.526854 14.1223 1.26666 14.6427 2.61618L18.6113 13.1487C19.0753 14.3893 18.7621 15.8346 17.8448 16.6868L13.2503 20.8827C16.1493 27.6021 20.9512 33.0657 26.8591 36.3667L30.6208 31.1448C31.3623 30.0985 32.6424 29.7365 33.7329 30.2739L42.9907 34.7896C44.1042 35.4561 44.8294 36.9317 44.5392 38.3489Z" fill="#0F2652"/>
</svg>
